<svg width="162" height="196" viewBox="0 0 162 196" fill="none" xmlns="http://www.w3.org/2000/svg">
<path d="M10.8388 27.5572L12.2559 27.1356C21.601 25.1427 26.8097 28.8219 31.6355 37.4449C47.1852 66.0732 63.7689 94.1266 79.9313 122.41C80.5058 123.406 81.2335 124.326 82.8038 126.664V120.072C82.8038 98.0741 83.0336 76.0758 82.6123 54.0777C82.6123 48.4056 84.5656 46.4128 89.6211 46.4128H96.9747V156.212C92.8559 156.5 88.7226 156.5 84.6039 156.212C82.9953 155.982 81.3867 153.721 80.3909 152.035C63.1304 123.062 45.9086 94.101 28.7247 65.1534L25.4693 59.7497V156.097H0C0 155.752 0 155.177 0.229798 155.139C9.07701 153.299 11.2601 147.781 11.1069 138.736C10.4558 103.823 10.8388 68.9858 10.8388 33.919V27.5572Z" fill="white"/>
<path d="M101.839 82.9361V68.9861C122.56 66.3417 149.369 86.232 158.063 110.491C162.878 124.251 162.878 139.24 158.063 152.999C153.247 166.759 143.902 178.473 131.56 186.22C108.58 200.86 72.119 198.331 51.7053 177.022C32.3256 156.787 27.2318 123.79 41.3261 101.638C44.2751 106.697 47.1859 111.488 49.8286 116.432C50.2257 117.743 50.2257 119.144 49.8286 120.456C47.4931 130.077 48.1082 140.18 51.5934 149.447C55.0783 158.713 61.2721 166.715 69.3671 172.409C77.4625 178.102 87.0838 181.224 96.9777 181.368C106.872 181.511 116.579 178.669 124.836 173.212C133.092 167.755 139.515 159.936 143.266 150.774C147.018 141.612 147.925 131.532 145.869 121.846C143.812 112.161 138.889 103.32 131.739 96.4757C124.589 89.631 115.545 85.0999 105.784 83.4727C104.597 83.281 103.41 83.1661 101.839 82.9361Z" fill="white"/>
<path d="M114.363 25.0275C114.442 26.8095 114.155 28.5887 113.523 30.2563C112.89 31.9237 111.924 33.4445 110.683 34.7253C109.442 36.0062 107.954 37.0202 106.308 37.7052C104.662 38.3901 102.894 38.732 101.111 38.7094C95.2898 38.9393 89.6215 38.7094 83.5701 38.7094C80.5379 38.589 77.5429 39.4126 74.9979 41.0671C72.4533 42.7211 70.4835 45.1245 69.361 47.9455C68.3621 50.8061 68.2556 53.9031 69.0557 56.8257C69.8562 59.7483 71.5253 62.3586 73.842 64.31C75.3273 65.6985 76.2993 67.5488 76.5996 69.5605C76.9826 73.3929 76.5996 77.2254 76.5996 81.0578C70.1246 80.4002 64.0886 77.481 59.5501 72.8138C55.0116 68.1463 52.2613 62.0282 51.7814 55.5338C50.9005 40.5872 60.169 26.8288 74.1484 25.2958C87.5403 24.5353 100.962 24.4458 114.363 25.0275Z" fill="white"/>
<path d="M96.1712 16.75H82.9961V0.232144C91.0773 -1.45413 97.4351 6.24907 96.1712 16.75Z" fill="white"/>
</svg>
