<svg width="14" height="14" viewBox="0 0 14 14" fill="none" xmlns="http://www.w3.org/2000/svg">
<path d="M5.61074 0.10237C5.13778 -0.0506013 4.6258 -0.0300868 4.1666 0.160235C3.7074 0.350557 3.33102 0.698238 3.10495 1.14093L2.54315 2.23944C2.47639 2.37022 2.37003 2.47658 2.23925 2.54334L1.14004 3.10514C0.697348 3.33121 0.349667 3.7076 0.159345 4.1668C-0.0309774 4.626 -0.051492 5.13798 0.10148 5.61093L0.482054 6.78541C0.527233 6.92497 0.527233 7.07522 0.482054 7.21478L0.102177 8.38926C-0.0507949 8.86222 -0.0302804 9.3742 0.160042 9.8334C0.350364 10.2926 0.698045 10.669 1.14074 10.8951L2.23925 11.4569C2.37003 11.5236 2.47639 11.63 2.54315 11.7608L3.10495 12.86C3.33102 13.3027 3.7074 13.6503 4.1666 13.8407C4.6258 14.031 5.13778 14.0515 5.61074 13.8985L6.78522 13.5179C6.92478 13.4728 7.07503 13.4728 7.21459 13.5179L8.38907 13.8978C8.86194 14.0508 9.37386 14.0304 9.83305 13.8402C10.2922 13.6501 10.6687 13.3025 10.8949 12.86L11.4567 11.7608C11.5234 11.63 11.6298 11.5236 11.7606 11.4569L12.8598 10.8958C13.3026 10.6697 13.6504 10.2932 13.8407 9.83381C14.0311 9.37445 14.0515 8.86231 13.8983 8.38926L13.5178 7.21478C13.4726 7.07522 13.4726 6.92497 13.5178 6.78541L13.8976 5.61093C14.0507 5.13806 14.0302 4.62614 13.8401 4.16695C13.6499 3.70776 13.3023 3.33133 12.8598 3.10514L11.7606 2.54334C11.6298 2.47658 11.5234 2.37022 11.4567 2.23944L10.8956 1.14024C10.6695 0.697388 10.293 0.349599 9.83361 0.159266C9.37426 -0.0310667 8.86212 -0.0514855 8.38907 0.101673L7.21459 0.482247C7.07503 0.527427 6.92478 0.527427 6.78522 0.482247L5.61074 0.10237Z" fill="#9455D3"/>
<path d="M4.31097 4.25074L4.36592 4.23439C4.72834 4.1571 4.93034 4.29978 5.11749 4.63419C5.72052 5.74443 6.36366 6.83238 6.99046 7.92924C7.01273 7.96788 7.04096 8.00355 7.10185 8.09422V7.83858C7.10185 6.98546 7.11076 6.13235 7.09443 5.27923C7.09443 5.05927 7.17018 4.98198 7.36624 4.98198H7.65142V9.24013C7.49169 9.25127 7.33139 9.25127 7.17166 9.24013C7.10928 9.23121 7.0469 9.14352 7.00828 9.07812C6.3389 7.95451 5.67101 6.83138 5.0046 5.70876L4.87835 5.4992V9.23567H3.89062C3.89062 9.22229 3.89062 9.2 3.89954 9.19851C4.24264 9.12717 4.3273 8.91315 4.32136 8.56239C4.29611 7.2084 4.31097 5.85739 4.31097 4.49746V4.25074Z" fill="#F2F2F2"/>
<path d="M7.83969 6.39832V5.85732C8.64324 5.75477 9.68295 6.52614 10.0201 7.46694C10.2068 8.00056 10.2068 8.58183 10.0201 9.11545C9.83332 9.64906 9.47092 10.1033 8.99228 10.4038C8.1011 10.9716 6.68709 10.8735 5.89543 10.0471C5.14386 9.26235 4.94632 7.98268 5.49291 7.12362C5.60728 7.3198 5.72016 7.50558 5.82265 7.69731C5.83805 7.74819 5.83805 7.8025 5.82265 7.85337C5.73207 8.22651 5.75593 8.61829 5.89109 8.97767C6.02624 9.33705 6.26644 9.64737 6.58037 9.86818C6.89432 10.089 7.26745 10.2101 7.65114 10.2156C8.03484 10.2212 8.41131 10.1109 8.73151 9.89932C9.05171 9.6877 9.30078 9.38448 9.44627 9.02915C9.59177 8.67383 9.62692 8.28292 9.54719 7.90731C9.46745 7.5317 9.2765 7.18885 8.99922 6.9234C8.72194 6.65795 8.37119 6.48223 7.99267 6.41913C7.94663 6.41169 7.90059 6.40724 7.83969 6.39832Z" fill="#F2F2F2"/>
<path d="M8.32571 4.15285C8.32876 4.22195 8.31766 4.29095 8.29313 4.35562C8.26857 4.42029 8.23111 4.47927 8.18299 4.52894C8.13488 4.57861 8.07715 4.61794 8.01332 4.6445C7.9495 4.67106 7.88092 4.68432 7.8118 4.68344C7.58603 4.69236 7.36621 4.68344 7.13153 4.68344C7.01394 4.67878 6.89779 4.71072 6.79909 4.77488C6.7004 4.83903 6.62401 4.93223 6.58048 5.04163C6.54174 5.15257 6.53761 5.27267 6.56864 5.38602C6.59969 5.49936 6.66441 5.60059 6.75426 5.67627C6.81186 5.73012 6.84956 5.80187 6.8612 5.87989C6.87606 6.02851 6.8612 6.17714 6.8612 6.32577C6.6101 6.30026 6.37601 6.18705 6.2 6.00606C6.024 5.82504 5.91734 5.58778 5.89873 5.33591C5.86456 4.75627 6.22401 4.2227 6.76614 4.16325C7.28549 4.13376 7.806 4.13029 8.32571 4.15285Z" fill="#F2F2F2"/>
<path d="M7.62032 3.83171H7.10938V3.19113C7.42277 3.12574 7.66933 3.42448 7.62032 3.83171Z" fill="#F2F2F2"/>
</svg>
